<svg clip-rule="evenodd" fill-rule="evenodd" stroke-linejoin="round" stroke-miterlimit="2" viewBox="0 0 510 510" xmlns="http://www.w3.org/2000/svg"><g><g><g><path d="m336.978 320.548c-5.797 8.294-12.621 15.802-20.291 22.365l55.197 54.109 21.015-21.66z" fill="#a79ba7"/><path d="m337.361 320.186c-1.087 3.563-3.121 6.26-6.019 8.052l54.834 54.492 6.723-7.368z" fill="#837683"/><path d="m441.795 467.276 23.713-24.458c4.167-4.288 4.067-11.212-.221-15.379l-65.704-63.752c-4.288-4.167-11.213-4.046-15.38.242l-23.713 24.437c-4.167 4.288-4.066 11.213.221 15.38l65.705 63.752c4.288 4.167 11.212 4.066 15.379-.222z" fill="#f1ba84"/><path d="m389.86 363.687 65.704 63.752c4.288 4.167 4.389 11.091.222 15.379l-23.714 24.458c-.885.886-1.872 1.611-2.939 2.134 4.127 2.053 9.28 1.329 12.662-2.134l23.713-24.458c4.167-4.288 4.067-11.212-.221-15.379l-65.704-63.752c-3.382-3.281-8.415-3.905-12.441-1.912.987.483 1.892 1.127 2.718 1.912z" fill="#e3a76f"/><path d="m247.339 140.706c66.067 0 119.633 53.546 119.633 119.633 0 66.067-53.566 119.633-119.633 119.633-66.087 0-119.633-53.566-119.633-119.633 0-66.087 53.546-119.633 119.633-119.633z" fill="#8ac9fe"/><path d="m247.339 140.706c66.067 0 119.633 53.546 119.633 119.633 0 66.067-53.566 119.633-119.633 119.633-1.953 0-3.885-.06-5.818-.141 63.37-3.039 113.836-55.378 113.836-119.492 0-64.134-50.466-116.472-113.836-119.492 1.933-.1 3.865-.141 5.818-.141z" fill="#60b7ff"/><path d="m247.339 168.023c50.969 0 92.316 41.327 92.316 92.316 0 50.97-41.347 92.317-92.316 92.317-50.989 0-92.316-41.347-92.316-92.317 0-50.989 41.327-92.316 92.316-92.316z" fill="#eceff1"/><path d="m247.339 168.023c2.094 0 4.167.06 6.24.201-48.09 3.221-86.076 43.219-86.076 92.115 0 48.876 37.986 88.895 86.076 92.095-2.073.141-4.146.222-6.24.222-50.989 0-92.316-41.327-92.316-92.317 0-50.989 41.327-92.316 92.316-92.316z" fill="#d1d1d6"/></g><g><g><path d="m472.363 103.535c9.99 0 18.1 8.119 18.1 18.12s-8.11 18.121-18.1 18.121-18.1-8.12-18.1-18.121 8.11-18.12 18.1-18.12zm-438.764 153.289c9.99 0 18.1 8.12 18.1 18.121s-8.11 18.121-18.1 18.121-18.1-8.12-18.1-18.121 8.11-18.121 18.1-18.121zm443.249 0c9.989 0 18.1 8.12 18.1 18.121s-8.111 18.121-18.1 18.121c-9.99 0-18.1-8.12-18.1-18.121s8.11-18.121 18.1-18.121zm-443.748-153.289c9.99 0 18.1 8.119 18.1 18.12s-8.11 18.121-18.1 18.121-18.1-8.12-18.1-18.121 8.11-18.12 18.1-18.12zm47.866-68.591c9.989 0 18.1 8.12 18.1 18.121s-8.111 18.121-18.1 18.121c-9.99 0-18.1-8.12-18.1-18.121s8.11-18.121 18.1-18.121zm335.572 0c9.99 0 18.1 8.12 18.1 18.121s-8.11 18.121-18.1 18.121-18.1-8.12-18.1-18.121 8.11-18.121 18.1-18.121z" fill="#8ac9fe"/></g><g><path d="m236.55 270.516 45.291-48.903c5.366-5.764 14.124-5.793 19.517-.059 5.394 5.734 5.422 15.063.056 20.856-18.378 19.816-36.616 39.752-55.077 59.479-5.394 5.764-14.152 5.764-19.546 0l-30.61-32.74c-5.394-5.764-5.394-15.093 0-20.886 5.393-5.764 14.151-5.764 19.545 0z" fill="#8ac9fe"/></g></g></g><path d="m58.45 283.133c-3.379 10.509-13.236 18.12-24.851 18.12-14.403 0-26.1-11.701-26.1-26.12s11.697-26.121 26.1-26.121c11.615 0 21.472 7.611 24.851 18.121h47.593c4.415 0 8 3.584 8 8 0 4.415-3.585 8-8 8zm-24.851-18.121c-5.577 0-10.1 4.537-10.1 10.121 0 5.583 4.523 10.12 10.1 10.12s10.1-4.537 10.1-10.12c0-5.584-4.523-10.121-10.1-10.121zm418.398 18.121h-60.484c-4.415 0-8-3.585-8-8 0-4.416 3.585-8 8-8h60.484c3.379-10.51 13.235-18.121 24.851-18.121 14.402 0 26.1 11.702 26.1 26.121s-11.698 26.12-26.1 26.12c-11.616 0-21.472-7.611-24.851-18.12zm24.851-18.121c-5.577 0-10.1 4.537-10.1 10.121 0 5.583 4.523 10.12 10.1 10.12s10.1-4.537 10.1-10.12c0-5.584-4.523-10.121-10.1-10.121zm-29.336-135.169c-11.135 0-32.134 0-32.134 0v48.223c0 4.418-3.582 8-8 8h-40.061c-4.416 0-8-3.585-8-8s3.584-8 8-8h32.061v-48.223c0-4.418 3.582-8 8-8h40.134c3.379-10.509 13.235-18.121 24.851-18.121 14.402 0 26.1 11.702 26.1 26.121s-11.698 26.121-26.1 26.121c-11.616 0-21.472-7.612-24.851-18.121zm24.851-18.121c-5.577 0-10.1 4.538-10.1 10.121s4.523 10.121 10.1 10.121 10.1-4.538 10.1-10.121-4.523-10.121-10.1-10.121zm-414.412 18.121c-3.379 10.509-13.235 18.121-24.851 18.121-14.402 0-26.1-11.702-26.1-26.121s11.698-26.121 26.1-26.121c11.616 0 21.472 7.612 24.851 18.121h29.694c4.418 0 8 3.582 8 8v48.223h35.848c4.415 0 8 3.585 8 8s-3.585 8-8 8h-43.848c-4.418 0-8-3.582-8-8v-48.223zm-24.851-18.121c-5.577 0-10.1 4.538-10.1 10.121s4.523 10.121 10.1 10.121 10.1-4.538 10.1-10.121-4.523-10.121-10.1-10.121zm72.717-50.469c-3.38 10.509-13.236 18.12-24.851 18.12-14.403 0-26.1-11.701-26.1-26.12s11.697-26.121 26.1-26.121c11.615 0 21.471 7.611 24.851 18.121h86.73c4.418 0 8 3.581 8 8v78.866c0 4.415-3.585 8-8 8-4.416 0-8-3.585-8-8v-70.866zm-24.851-18.121c-5.577 0-10.1 4.537-10.1 10.121 0 5.583 4.523 10.12 10.1 10.12s10.1-4.537 10.1-10.12c0-5.584-4.523-10.121-10.1-10.121zm310.721 18.121h-78.678v70.866c0 4.415-3.584 8-8 8-4.415 0-8-3.585-8-8v-78.866c0-4.419 3.582-8 8-8h86.678c3.379-10.51 13.236-18.121 24.851-18.121 14.403 0 26.1 11.702 26.1 26.121s-11.697 26.12-26.1 26.12c-11.615 0-21.472-7.611-24.851-18.12zm24.851-18.121c-5.577 0-10.1 4.537-10.1 10.121 0 5.583 4.523 10.12 10.1 10.12s10.1-4.537 10.1-10.12c0-5.584-4.523-10.121-10.1-10.121zm-89.592 321.487c-21.694 16.531-48.784 26.347-78.167 26.347-71.286 0-129.073-57.773-129.073-129.036 0-71.264 57.787-129.036 129.073-129.036 71.284 0 129.071 57.772 129.071 129.036 0 25.074-7.154 48.478-19.533 68.283l28.231 27.387c6.997-3.406 15.711-2.289 21.596 3.421l66.487 64.499c7.502 7.279 7.686 19.371.404 26.872l-24.004 24.731c-7.28 7.499-19.372 7.68-26.874.405l-66.488-64.498c-6.093-5.909-7.358-14.995-3.722-22.218zm21.954-21.25c-3.066 3.764-6.341 7.35-9.805 10.744l25.377 24.618 10.126-10.433zm-100.121-194.475c-62.448 0-113.073 50.607-113.073 113.036 0 62.428 50.625 113.036 113.073 113.036 62.446 0 113.071-50.608 113.071-113.036 0-62.429-50.625-113.036-113.071-113.036zm-.001 12.398c55.597 0 100.666 45.058 100.666 100.638 0 55.579-45.069 100.637-100.666 100.637-55.596 0-100.665-45.058-100.665-100.637 0-55.58 45.069-100.638 100.665-100.638zm0 16c-46.758 0-84.665 37.893-84.665 84.638 0 46.744 37.907 84.637 84.665 84.637 46.759 0 84.666-37.893 84.666-84.637 0-46.745-37.907-84.638-84.666-84.638zm-12.258 81.671 39.451-42.598.014-.016c8.578-9.213 22.578-9.255 31.2-.089 8.217 8.735 8.273 22.948.098 31.774l-.003.003c-18.386 19.826-36.633 39.77-55.102 59.506-8.618 9.209-22.61 9.209-31.228 0l-30.611-32.74c-8.213-8.777-8.227-22.982-.014-31.804l.014-.015c8.618-9.209 22.611-9.209 31.228 0zm-5.811 17.206-20.824-22.252c-2.168-2.316-5.686-2.319-7.856-.008-2.567 2.766-2.579 7.213-.007 9.961l30.611 32.741c2.17 2.318 5.693 2.318 7.863 0 18.451-19.718 36.68-39.643 55.049-59.45 2.557-2.761 2.556-7.206-.014-9.938-2.164-2.301-5.677-2.285-7.832.025l-45.279 48.891c-1.509 1.63-3.628 2.558-5.849 2.564s-4.344-.912-5.862-2.534zm208.841 189.81 24.005-24.731c1.15-1.185 1.12-3.095-.065-4.245l-66.487-64.498c-1.187-1.152-3.102-1.123-4.253.064l-24.005 24.731c-1.15 1.185-1.121 3.096.064 4.245l66.486 64.497c1.188 1.151 3.102 1.125 4.255-.063zm-419.484-242.535c-4.415 0-8-3.585-8-8s3.585-8 8-8h92.684c4.415 0 8 3.585 8 8s-3.585 8-8 8zm364.124 0c-4.415 0-8-3.585-8-8s3.585-8 8-8h110.81c4.415 0 8 3.585 8 8s-3.585 8-8 8zm-364.124 119.377c-4.415 0-8-3.584-8-8 0-4.415 3.585-8 8-8h103.27c4.415 0 8 3.585 8 8 0 4.416-3.585 8-8 8zm364.124 0c-4.415 0-8-3.584-8-8 0-4.415 3.585-8 8-8h103.27c4.416 0 8 3.585 8 8 0 4.416-3.584 8-8 8z"/></g></svg>