<svg id="Layer_1" height="128" viewBox="0 0 128 128" width="128" xmlns="http://www.w3.org/2000/svg" data-name="Layer 1"><path d="m120.09 14.04a2.53663 2.53663 0 0 1 -1.74-2.29 5.9213 5.9213 0 0 0 -4.56-5.5 5.29719 5.29719 0 0 0 -3.67.36 2.79366 2.79366 0 0 1 -1.21.29 2.46508 2.46508 0 0 1 -1.88-.89 5.87683 5.87683 0 0 0 -3.36-1.91 4.81627 4.81627 0 0 0 -1.93-.01 6.07184 6.07184 0 0 0 -3.17 1.72 5.404 5.404 0 0 0 -1.27 1.94 2.59309 2.59309 0 0 1 -2.52 1.78l-.11-.01a5.8336 5.8336 0 0 0 -5.45 4.18 5.45212 5.45212 0 0 0 .15 3.74 3.082 3.082 0 0 1 -.33 3.07 5.99245 5.99245 0 0 0 -.6 5.64 5.86071 5.86071 0 0 0 4.35 3.55 5.07716 5.07716 0 0 0 1.98.00995 2.857 2.857 0 0 1 .58-.06 2.52413 2.52413 0 0 1 2.25 1.37 5.62636 5.62636 0 0 0 4.02 2.88 5.41074 5.41074 0 0 0 4.54-1.15 2.795 2.795 0 0 1 1.79-.7 2.89723 2.89723 0 0 1 1.55.48 5.83943 5.83943 0 0 0 8.94-4.19l.04-.24a4.05318 4.05318 0 0 1 2.37-3.3 5.54185 5.54185 0 0 0 3.14-4.99 5.85448 5.85448 0 0 0 -3.9-5.76995zm-20.86.71a3.39411 3.39411 0 0 0 -2.41 2.67 2.00357 2.00357 0 0 1 -1.98 1.75 1.94522 1.94522 0 0 1 -.25-.02 2.00015 2.00015 0 0 1 -1.74-2.23 7.37653 7.37653 0 0 1 5.26-6.01 2 2 0 1 1 1.12 3.84z" fill="#ffdb80"/><path d="m123.99 19.81a5.54185 5.54185 0 0 1 -3.14 4.99 4.05318 4.05318 0 0 0 -2.37 3.3l-.04.24a5.86174 5.86174 0 0 1 -5.82 5.11 3.38565 3.38565 0 0 1 -.45-.02 5.81917 5.81917 0 0 1 -2.67-.9 2.89723 2.89723 0 0 0 -1.55-.48 2.795 2.795 0 0 0 -1.79.7 5.48823 5.48823 0 0 1 -2.98 1.23 3.38519 3.38519 0 0 1 -.45.02h-.02c-.17 0-.35-.01-.53-.02-.18-.02-.37-.04-.56-.08a5.62636 5.62636 0 0 1 -4.02-2.88 2.52413 2.52413 0 0 0 -2.25-1.37 2.857 2.857 0 0 0 -.58.06c-.15.03-.31.05-.47.07a4.34418 4.34418 0 0 1 -.51.02c-.16 0-.32-.01-.49-.02a4.49734 4.49734 0 0 1 -.51-.08 5.86071 5.86071 0 0 1 -4.35-3.55 5.96467 5.96467 0 0 1 -.09-4.26 1.34069 1.34069 0 0 0 .09.25995 5.86071 5.86071 0 0 0 4.35 3.55 5.07716 5.07716 0 0 0 1.98.00995 2.857 2.857 0 0 1 .58-.06 2.52413 2.52413 0 0 1 2.25 1.37 5.62636 5.62636 0 0 0 4.02 2.88 5.41074 5.41074 0 0 0 4.54-1.15 2.795 2.795 0 0 1 1.79-.7 2.89723 2.89723 0 0 1 1.55.48 5.83943 5.83943 0 0 0 8.94-4.19l.04-.24a4.05318 4.05318 0 0 1 2.37-3.3 5.51921 5.51921 0 0 0 2.82-3.18 5.73852 5.73852 0 0 1 .32 2.1901z" fill="#937d4a" opacity=".3"/><path d="m123.99 19.81a6.39827 6.39827 0 0 1 -.32 1.81 5.90447 5.90447 0 0 0 -3.58-3.58 2.53663 2.53663 0 0 1 -1.74-2.29 5.9213 5.9213 0 0 0 -4.56-5.5 5.29719 5.29719 0 0 0 -3.67.36 2.79366 2.79366 0 0 1 -1.21.29 2.46508 2.46508 0 0 1 -1.87994-.89 5.87683 5.87683 0 0 0 -3.36-1.91 4.81627 4.81627 0 0 0 -1.93-.01 6.07184 6.07184 0 0 0 -3.17 1.72 5.404 5.404 0 0 0 -1.27 1.94 2.59309 2.59309 0 0 1 -2.52 1.78l-.11-.01a5.80625 5.80625 0 0 0 -5.33 3.84 5.46294 5.46294 0 0 1 -.12006-3.66 5.8336 5.8336 0 0 1 5.45-4.18l.11.01a2.59309 2.59309 0 0 0 2.52-1.78 5.404 5.404 0 0 1 1.27-1.94 6.07184 6.07184 0 0 1 3.17-1.72 4.81627 4.81627 0 0 1 1.93.01 5.87683 5.87683 0 0 1 3.36 1.91 2.46508 2.46508 0 0 0 1.88.89 2.79366 2.79366 0 0 0 1.21-.29 5.94317 5.94317 0 0 1 1.76-.51 5.78774 5.78774 0 0 1 .93-.02 4.79256 4.79256 0 0 1 .98.17 5.9213 5.9213 0 0 1 4.56 5.5 2.53663 2.53663 0 0 0 1.74 2.29 5.85448 5.85448 0 0 1 3.9 5.77z" fill="#f9edd2" opacity=".5"/><path d="m106.67 84.5-31.48-24.8a.0098.0098 0 0 0 -.01-.01l-1.1-.87c-.39.25-1.66 1.14-2.96 2.06-1.48 1.05-3.03 2.12-3.52 2.36-.7.34-1.43.65-2.18.93 0 0-14.63 3.54-26.15-2.82a22.786 22.786 0 0 1 -2.72-1.75l-.33-.24c-4.01 2.96-14.61 10.55-27.8 18.47-1.11.67-6.42 9.56-6.42 11.4l.83 35.35 105.72.57z" fill="#fc785e"/><path d="m50.52 96.36-8.56 27.64h-33.96a3.99891 3.99891 0 0 1 -4-4v-4a3.99891 3.99891 0 0 0 4 4h30.96l8.0653-26.03973z" fill="#a54b3f" opacity=".5"/><path d="m62.81 77.23-1.85 4.51a.46677.46677 0 0 1 -.05.1l-1.49 3.65a13.1586 13.1586 0 0 1 -3.86 4.73 7.93811 7.93811 0 0 0 -2.22 2.45.47934.47934 0 0 1 -.46.32.57074.57074 0 0 1 -.22-.04l-9.3-4.35a.55731.55731 0 0 1 -.28-.71 9.35037 9.35037 0 0 0 .46-5.81 24.90144 24.90144 0 0 1 -.32-5.98c-.00995-1.02.05-2.15.11-3.24.12-2.25-1.21-7.63 1.51-8.49a2.56769 2.56769 0 0 1 .72-.11 2.48049 2.48049 0 0 1 1.02.23 2.65043 2.65043 0 0 1 1.39 1.64 24.52243 24.52243 0 0 1 .81 4.35l7.09-16.89a2.43325 2.43325 0 0 1 2.22-1.59 2.28091 2.28091 0 0 1 .97.22 2.64967 2.64967 0 0 1 1.27 3.45l-5.06 11.95a2.35232 2.35232 0 0 1 .97.24 2.66551 2.66551 0 0 1 1.49 2.91 2.43978 2.43978 0 0 1 1.06.23 2.708 2.708 0 0 1 1.53 2.44.54567.54567 0 0 1 .01.18h.1a2.572 2.572 0 0 1 1.04.23 2.67 2.67 0 0 1 1.34 3.38z" fill="#e1ebf4"/><path d="m64.42 55.88a6.64 6.64 0 0 0 -3.67-7.29 6.29172 6.29172 0 0 0 -2.66-.59 6.41956 6.41956 0 0 0 -5.92 4.07l-2.19 5.21c-7.69-1.96-14.69-7.87-18.71-16.18-6.68-13.81-2.81-29.58 8.63-35.14a19.424 19.424 0 0 1 8.59-1.96 24.44858 24.44858 0 0 1 13.92 4.6 31.94677 31.94677 0 0 1 10.32 12.3c6.62 13.68 2.88 29.27-8.31 34.98z" fill="#e1ebf4"/><g fill="#2d4356"><circle cx="18" cy="120" r="2"/><path d="m122.24 10.6a9.81463 9.81463 0 0 0 -7.42-8.22 9.16836 9.16836 0 0 0 -5.5.25 10.07574 10.07574 0 0 0 -4.86-2.45l-.11-.02a8.45565 8.45565 0 0 0 -3.44.02 10.072 10.072 0 0 0 -5.23 2.86 9.89419 9.89419 0 0 0 -1.79 2.52 9.89636 9.89636 0 0 0 -8.49 6.97 9.34459 9.34459 0 0 0 .12 6.05 9.97907 9.97907 0 0 0 -.79 9.06 9.79515 9.79515 0 0 0 7.25 5.98 9.67624 9.67624 0 0 0 2.63.15 9.57737 9.57737 0 0 0 6.3 4.06 10.27241 10.27241 0 0 0 1.82.17 9.1122 9.1122 0 0 0 5.32-1.69 9.83662 9.83662 0 0 0 14.35-7.42l.00995-.02a2.94113 2.94113 0 0 1 .08-.4c.05-.03.13-.08.27-.16a9.60886 9.60886 0 0 0 5.23-8.3 9.87591 9.87591 0 0 0 -5.74995-9.41zm-1.39 14.2a4.05318 4.05318 0 0 0 -2.37 3.3l-.04.24a5.83943 5.83943 0 0 1 -8.94 4.19 2.89723 2.89723 0 0 0 -1.55-.48 2.795 2.795 0 0 0 -1.79.7 5.41074 5.41074 0 0 1 -4.54 1.15 5.62636 5.62636 0 0 1 -4.02-2.88 2.52413 2.52413 0 0 0 -2.25-1.37 2.857 2.857 0 0 0 -.58.06 5.07716 5.07716 0 0 1 -1.98-.01 5.86071 5.86071 0 0 1 -4.35-3.55 5.99245 5.99245 0 0 1 .6-5.64 3.082 3.082 0 0 0 .33-3.07 5.45212 5.45212 0 0 1 -.15-3.74 5.8336 5.8336 0 0 1 5.45-4.18l.11.01a2.59309 2.59309 0 0 0 2.52-1.78 5.404 5.404 0 0 1 1.27-1.94 6.07184 6.07184 0 0 1 3.17-1.72 4.81627 4.81627 0 0 1 1.93.01 5.87683 5.87683 0 0 1 3.36 1.91 2.46508 2.46508 0 0 0 1.88.89 2.79366 2.79366 0 0 0 1.21-.29 5.29719 5.29719 0 0 1 3.67-.36 5.9213 5.9213 0 0 1 4.56 5.5 2.53663 2.53663 0 0 0 1.74 2.29 5.85448 5.85448 0 0 1 3.9 5.77 5.54185 5.54185 0 0 1 -3.14 4.99z"/><path d="m95 40a6 6 0 1 0 6 6 6.00476 6.00476 0 0 0 -6-6zm0 8a2 2 0 1 1 2-2 2.00591 2.00591 0 0 1 -2 2z"/></g><circle cx="95" cy="46" fill="#ffdb80" r="2"/><circle cx="88.001" cy="57.002" fill="#2d4356" r="3"/><path d="m99.23 14.75a3.39411 3.39411 0 0 0 -2.41 2.67 2.00357 2.00357 0 0 1 -1.98 1.75 1.94522 1.94522 0 0 1 -.25-.02 2.00015 2.00015 0 0 1 -1.74-2.23 7.37653 7.37653 0 0 1 5.26-6.01 2 2 0 1 1 1.12 3.84z" fill="#2d4356"/><circle cx="107" cy="14" fill="#2d4356" r="2"/><path d="m39.27 61.35a4.48192 4.48192 0 0 1 -1.08 2.25c-.43.52-.66.77-1.34 1.63-.98 1.28-4.37 4.74-28.14 19.01-2.42 1.46-4.71 5.83-4.71 8.99l-1.33333-3.14667c0-3.16.91329-9.95664 3.33333-11.41667 17.86-10.72 25.38332-14.185 27.83333-16.375.41-1.17 2.37669-1.7617 2.71665-2.69169a22.786 22.786 0 0 0 2.72002 1.75003z" fill="#f9dbd7" opacity=".3"/><path d="m105.57 93.04a2.11528 2.11528 0 0 0 -.25-.03c-.1-3.14-2.34-7.34-4.7-8.77-4.61-2.77-10.7-6.79-15.9-10.49-9.3-6.63-9.75995-8.06-10.48-8.93l-3.12-3.94c1.3-.92 2.57-1.81 2.96-2.06l1.1.87a.0098.0098 0 0 1 .01.01 39.09859 39.09859 0 0 0 9.53 10.05c5.2 3.7 11.29 7.72 15.9 10.49 2.42 1.46 4.71 5.83 4.71 8.99v.13l.01.13z" fill="#f9dbd7" opacity=".3"/><path d="m64.42 55.88a6.64 6.64 0 0 0 -3.67-7.29 5.98406 5.98406 0 0 0 -2.38-.57 2.6481 2.6481 0 0 0 -.28-.02 6.41956 6.41956 0 0 0 -5.92 4.07l-2.19 5.21c-7.69-1.96-14.69-7.87-18.71-16.18a31.762 31.762 0 0 1 -3.2-15.95 32.27463 32.27463 0 0 0 3.2 11.95c4.02 8.31 11.02 14.22 18.71 16.18l2.19-5.21a6.41956 6.41956 0 0 1 5.92-4.07 6.29172 6.29172 0 0 1 2.66.59 6.64 6.64 0 0 1 3.67 7.29c6.89-3.52 10.95-10.79 11.51-19.04.67 9.85-3.52 18.96-11.51 23.04z" fill="#9fa5aa" opacity=".5"/><path d="m75.93 36.84a32.47128 32.47128 0 0 0 -3.2-11.94 31.94677 31.94677 0 0 0 -10.32-12.3 24.44858 24.44858 0 0 0 -13.92-4.6 19.424 19.424 0 0 0 -8.59 1.96c-7.08 3.44-11.26 10.8-11.83 19.19-.67-9.99 3.64-19.21 11.83-23.19a19.41894 19.41894 0 0 1 7.15-1.91c.47-.03.95-.05 1.44-.05l1.03.04q.49493.015.99.06c.25.02.51.05.77.08a25.10294 25.10294 0 0 1 11.13 4.42 32.65509 32.65509 0 0 1 13.52 28.24z" fill="#fff" opacity=".5"/><path d="m62.81 77.23-1.85 4.51a.46677.46677 0 0 1 -.05.1l-1.49 3.65a13.1586 13.1586 0 0 1 -3.86 4.73 7.93811 7.93811 0 0 0 -2.22 2.45.47934.47934 0 0 1 -.46.32.57074.57074 0 0 1 -.22-.04l-9.3-4.35a.55731.55731 0 0 1 -.28-.71 8.44769 8.44769 0 0 0 .7-3.09l8.88 4.15a.57074.57074 0 0 0 .22.04.47934.47934 0 0 0 .46-.32 7.93811 7.93811 0 0 1 2.22-2.45 13.1586 13.1586 0 0 0 3.86-4.73l1.49-3.65a.46677.46677 0 0 0 .05-.1l1.34-3.26a2.61579 2.61579 0 0 1 .51 2.75z" fill="#9fa5aa" opacity=".5"/><path d="m107.33 120.11a4.00306 4.00306 0 0 1 -4 3.89h-57.19l1.24-4h55.95a4.00233 4.00233 0 0 0 3.81-2.78z" fill="#a54b3f" opacity=".5"/><path d="m109.33 89.23c0-4.42-2.86-10.14-6.65-12.42-9.53-5.72-23.87-15.86-24.88-17.82 0 0-.52-1.08-1.3-2.69a27.49577 27.49577 0 0 1 -2.99 3.02l.69 1.41.02.04.02.05c.44.86 1.18 2.3 10.48 8.93 5.2 3.7 11.29 7.72 15.9 10.49 2.42 1.46 4.71 5.83 4.71 8.99v.13l.01.13 1.99 30.62a4.00306 4.00306 0 0 1 -4 3.89h-57.19l8.43-27.18c.01-.06.01-.12.02-.17a4.52531 4.52531 0 0 0 2.38-2.28 15.92818 15.92818 0 0 1 1.22-1.14 16.78884 16.78884 0 0 0 4.93-6.22l1.44-3.51.12-.27 1.83-4.48a6.61928 6.61928 0 0 0 -2.88-8.28 6.66646 6.66646 0 0 0 -2.33-2.64 6.7723 6.7723 0 0 0 -1.03-1.76l2.17-5.11a22.86355 22.86355 0 0 0 3.41-1.32c13.44-6.54 18.13-24.67 10.48-40.48-5.6-11.57-16.24-18.68-26.81-19.12l-1.03-.04h-.01l-1.06.03a23.41409 23.41409 0 0 0 -9.27 2.33c-13.44 6.54-18.13 24.67-10.48 40.48a34.17433 34.17433 0 0 0 18.77 17.49 6.39846 6.39846 0 0 0 -.88-.06995 6.30929 6.30929 0 0 0 -1.92.3c-5.09 1.59-4.62 7.61-4.39 10.5.04.58.1 1.3.08 1.59-.05 1.04-.12 2.22-.11 3.33a29.51489 29.51489 0 0 0 .36 6.7c.27 1.81.35 2.35-.2 3.69a4.58136 4.58136 0 0 0 -.23 2.7 1.8964 1.8964 0 0 0 -.62.55l-17.13 23a1.99726 1.99726 0 0 0 .41 2.8 1.94005 1.94005 0 0 0 1.19.4 1.98019 1.98019 0 0 0 1.6-.81l17-22.82a.92918.92918 0 0 0 .1.05l8.82 4.12-8.56 27.63995h-33.96a3.99891 3.99891 0 0 1 -4-4v-30.77c0-3.16 2.29-7.53 4.71-8.99 26.62-15.98 27.81-18.31 28.38-19.42l.03-.05.02-.04.25-.53a36.2589 36.2589 0 0 1 -3.23-2.5c-.39.81-.62 1.29-.62 1.29-1.01 1.96-17.36 12.1-26.89 17.82-3.78 2.28-6.65 8-6.65 12.42v30.77a7.99782 7.99782 0 0 0 8 8h95.33a7.99782 7.99782 0 0 0 8-8zm-78.06-48.13c-6.68-13.81-2.81-29.58 8.63-35.14a19.424 19.424 0 0 1 8.59-1.96 24.44858 24.44858 0 0 1 13.92 4.6 31.94677 31.94677 0 0 1 10.32 12.3c6.62 13.68 2.88 29.27-8.31 34.98a6.64 6.64 0 0 0 -3.67-7.29 6.29172 6.29172 0 0 0 -2.66-.59 6.41956 6.41956 0 0 0 -5.92 4.07l-2.19 5.21c-7.69-1.96-14.69-7.87-18.71-16.18zm12.09 47.5a.55731.55731 0 0 1 -.28-.71 9.35037 9.35037 0 0 0 .46-5.81 24.90144 24.90144 0 0 1 -.32-5.98c-.00995-1.02.05-2.15.11-3.24.12-2.25-1.21-7.63 1.51-8.49a2.56769 2.56769 0 0 1 .72-.11 2.48049 2.48049 0 0 1 1.02.23 2.65043 2.65043 0 0 1 1.39 1.64 24.52243 24.52243 0 0 1 .81 4.35l7.09-16.89a2.43325 2.43325 0 0 1 2.22-1.59 2.28091 2.28091 0 0 1 .97.22 2.64967 2.64967 0 0 1 1.27 3.45l-5.06 11.95a2.35232 2.35232 0 0 1 .97.24 2.66551 2.66551 0 0 1 1.49 2.91 2.43978 2.43978 0 0 1 1.06.23 2.708 2.708 0 0 1 1.53 2.44.54567.54567 0 0 1 .01.18h.1a2.572 2.572 0 0 1 1.04.23 2.67 2.67 0 0 1 1.34 3.38l-1.85 4.51a.46677.46677 0 0 1 -.05.1l-1.49 3.65a13.1586 13.1586 0 0 1 -3.86 4.73 7.93811 7.93811 0 0 0 -2.22 2.45.47934.47934 0 0 1 -.46.32.57074.57074 0 0 1 -.22-.04z" fill="#2d4356"/><path d="m97 46a2 2 0 1 1 -3.73-1 1.99642 1.99642 0 0 0 3.46 0 1.99424 1.99424 0 0 1 .27 1z" fill="#937d4a" opacity=".3"/></svg>