<?xml version="1.0" encoding="UTF-8" standalone="no"?>
<!-- Created with Inkscape (http://www.inkscape.org/) -->

<svg
   version="1.1"
   id="svg6042"
   xml:space="preserve"
   width="682.66669"
   height="682.66669"
   viewBox="0 0 682.66669 682.66669"
   xmlns="http://www.w3.org/2000/svg"
   xmlns:svg="http://www.w3.org/2000/svg"><defs
     id="defs6046"><clipPath
       clipPathUnits="userSpaceOnUse"
       id="clipPath6062"><path
         d="M 0,512 H 512 V 0 H 0 Z"
         id="path6060" /></clipPath></defs><g
     id="g6048"
     transform="matrix(1.3333333,0,0,-1.3333333,0,682.66667)"><g
       id="g6050"
       transform="translate(78.5684,275.5469)"><path
         d="M 0,0 V 189.947"
         style="fill:none;stroke:#000000;stroke-width:15;stroke-linecap:round;stroke-linejoin:round;stroke-miterlimit:10;stroke-dasharray:none;stroke-opacity:1"
         id="path6052" /></g><path
       d="M 312.573,55.197 H 199.427 v 134.574 h 113.146 z"
       style="fill:#a698a6;fill-opacity:1;fill-rule:nonzero;stroke:none"
       id="path6054" /><g
       id="g6056"><g
         id="g6058"
         clip-path="url(#clipPath6062)"><g
           id="g6064"
           transform="translate(433.4316,300.623)"><path
             d="m 0,0 v 60.423 c 0,56.14 -45.674,101.814 -101.814,101.814 h -151.235 c -56.14,0 -101.814,-45.674 -101.814,-101.814 V 0 Z"
             style="fill:none;stroke:#000000;stroke-width:15;stroke-linecap:round;stroke-linejoin:round;stroke-miterlimit:10;stroke-dasharray:none;stroke-opacity:1"
             id="path6066" /></g><g
           id="g6068"
           transform="translate(332.1211,150.9912)"><path
             d="m 0,0 h -152.242 c -38.621,0 -69.929,31.309 -69.929,69.93 v 140.125 c 0,38.899 31.534,70.433 70.433,70.433 H -0.504 c 38.9,0 70.434,-31.534 70.434,-70.433 V 69.93 C 69.93,31.309 38.621,0 0,0"
             style="fill:#c1e2ff;fill-opacity:1;fill-rule:nonzero;stroke:none"
             id="path6070" /></g><g
           id="g6072"
           transform="translate(331.6172,431.4795)"><path
             d="M 0,0 H -65.333 C -26.435,0 5.1,-31.534 5.1,-70.434 v -140.125 c 0,-38.621 -31.309,-69.929 -69.93,-69.929 H 0.504 c 38.621,0 69.93,31.308 69.93,69.929 V -70.434 C 70.434,-31.534 38.899,0 0,0"
             style="fill:#b3d8fb;fill-opacity:1;fill-rule:nonzero;stroke:none"
             id="path6074" /></g><g
           id="g6076"
           transform="translate(109.9497,245.9277)"><path
             d="m 0,0 h -36.874 c -8.55,0 -15.481,6.932 -15.481,15.481 v 56.767 c 0,8.55 6.931,15.481 15.481,15.481 H 0 Z"
             style="fill:#89c6fc;fill-opacity:1;fill-rule:nonzero;stroke:none"
             id="path6078" /></g><g
           id="g6080"
           transform="translate(402.0508,245.9277)"><path
             d="m 0,0 h 36.874 c 8.55,0 15.48,6.932 15.48,15.481 v 56.767 c 0,8.55 -6.93,15.481 -15.48,15.481 H 0 Z"
             style="fill:#89c6fc;fill-opacity:1;fill-rule:nonzero;stroke:none"
             id="path6082" /></g><g
           id="g6084"
           transform="translate(454.4053,261.4092)"><path
             d="m 0,0 v -48.945 c 0,-11.134 -9.025,-20.16 -20.16,-20.16 h -62.803"
             style="fill:none;stroke:#000000;stroke-width:15;stroke-linecap:round;stroke-linejoin:round;stroke-miterlimit:10;stroke-dasharray:none;stroke-opacity:1"
             id="path6086" /></g><g
           id="g6088"
           transform="translate(397.2939,174.8623)"><path
             d="m 0,0 h -35.212 c -9.633,0 -17.441,7.81 -17.441,17.441 0,9.633 7.808,17.442 17.441,17.442 H 0 c 9.633,0 17.441,-7.809 17.441,-17.442 C 17.441,7.81 9.633,0 0,0"
             style="fill:#fc8086;fill-opacity:1;fill-rule:nonzero;stroke:none"
             id="path6090" /></g><g
           id="g6092"
           transform="translate(350.1826,239.1025)"><path
             d="m 0,0 h -188.365 c -12.578,0 -22.775,10.196 -22.775,22.774 v 77.493 c 0,12.578 10.197,22.774 22.775,22.774 H 0 c 12.578,0 22.774,-10.196 22.774,-22.774 V 22.774 C 22.774,10.196 12.578,0 0,0"
             style="fill:#e8f3ff;fill-opacity:1;fill-rule:nonzero;stroke:none"
             id="path6094" /></g><g
           id="g6096"
           transform="translate(336.7168,361.0459)"><path
             d="m 0,0 v -121.943 h 13.466 c 12.578,0 22.774,10.196 22.774,22.774 v 77.493 C 36.24,-9.099 26.044,1.098 13.466,1.098 H -0.027 C -0.021,0.731 0,0.368 0,0"
             style="fill:#d8eafb;fill-opacity:1;fill-rule:nonzero;stroke:none"
             id="path6098" /></g><g
           id="g6100"
           transform="translate(220.3232,300.623)"><path
             d="m 0,0 c 0,-12.099 -9.808,-21.906 -21.906,-21.906 -12.098,0 -21.907,9.807 -21.907,21.906 0,12.099 9.809,21.906 21.907,21.906 C -9.808,21.906 0,12.099 0,0"
             style="fill:#89c6fc;fill-opacity:1;fill-rule:nonzero;stroke:none"
             id="path6102" /></g><g
           id="g6104"
           transform="translate(335.4893,300.623)"><path
             d="m 0,0 c 0,-12.099 -9.808,-21.906 -21.906,-21.906 -12.099,0 -21.907,9.807 -21.907,21.906 0,12.099 9.808,21.906 21.907,21.906 C -9.808,21.906 0,12.099 0,0"
             style="fill:#89c6fc;fill-opacity:1;fill-rule:nonzero;stroke:none"
             id="path6106" /></g><g
           id="g6108"
           transform="translate(292.7871,204.8301)"><path
             d="m 0,0 c 0,-10.469 -8.486,-18.956 -18.956,-18.956 h -35.663 c -10.468,0 -18.955,8.487 -18.955,18.956"
             style="fill:none;stroke:#000000;stroke-width:15;stroke-linecap:round;stroke-linejoin:round;stroke-miterlimit:10;stroke-dasharray:none;stroke-opacity:1"
             id="path6110" /></g><g
           id="g6112"
           transform="translate(331.6172,431.4795)"><path
             d="m 0,0 h -151.234 c -2.838,0 -5.631,-0.187 -8.381,-0.514 1.13,-19.982 17.687,-35.84 37.953,-35.84 h 92.09 c 20.265,0 36.822,15.858 37.953,35.84 C 5.631,-0.187 2.838,0 0,0"
             style="fill:#a698a6;fill-opacity:1;fill-rule:nonzero;stroke:none"
             id="path6114" /></g><g
           id="g6116"
           transform="translate(331.6172,431.4795)"><path
             d="m 0,0 h -65.328 c 23.672,-0.002 44.599,-11.693 57.369,-29.604 9.348,6.475 15.657,17.028 16.34,29.09 C 5.631,-0.187 2.838,0 0,0"
             style="fill:#8f818f;fill-opacity:1;fill-rule:nonzero;stroke:none"
             id="path6118" /></g><g
           id="g6120"
           transform="translate(98.0713,484.9971)"><path
             d="m 0,0 c 0,-10.771 -8.732,-19.503 -19.503,-19.503 -10.771,0 -19.502,8.732 -19.502,19.503 0,10.771 8.731,19.503 19.502,19.503 C -8.732,19.503 0,10.771 0,0"
             style="fill:#6dd3a0;fill-opacity:1;fill-rule:nonzero;stroke:none"
             id="path6122" /></g><g
           id="g6124"
           transform="translate(409.2598,107.7432)"><path
             d="m 0,0 h -306.52 c -16.85,0 -30.51,-13.66 -30.51,-30.511 v -69.732 H 30.511 v 69.732 C 30.511,-13.66 16.851,0 0,0"
             style="fill:#c1e2ff;fill-opacity:1;fill-rule:nonzero;stroke:none"
             id="path6126" /></g><g
           id="g6128"
           transform="translate(409.2598,107.7432)"><path
             d="m 0,0 h -65.195 c 16.85,0 30.51,-13.66 30.51,-30.511 v -69.732 h 65.196 v 69.732 C 30.511,-13.66 16.851,0 0,0"
             style="fill:#b3d8fb;fill-opacity:1;fill-rule:nonzero;stroke:none"
             id="path6130" /></g><g
           id="g6132"
           transform="translate(480.3896,7.5)"><path
             d="m 0,0 h -40.619 v 74.188 c 26.505,0 47.991,-21.487 47.991,-47.992 V 7.372 C 7.372,3.301 4.071,0 0,0"
             style="fill:#89c6fc;fill-opacity:1;fill-rule:nonzero;stroke:none"
             id="path6134" /></g><g
           id="g6136"
           transform="translate(31.6099,7.5)"><path
             d="M 0,0 H 40.62 V 74.188 C 14.115,74.188 -7.372,52.701 -7.372,26.196 V 7.372 C -7.372,3.301 -4.071,0 0,0"
             style="fill:#89c6fc;fill-opacity:1;fill-rule:nonzero;stroke:none"
             id="path6138" /></g><g
           id="g6140"
           transform="translate(374.5752,7.5)"><path
             d="m 0,0 v 31.766 c 0,6.292 -5.101,11.392 -11.392,11.392 h -214.366 c -6.292,0 -11.392,-5.1 -11.392,-11.392 V 0 Z"
             style="fill:#e8f3ff;fill-opacity:1;fill-rule:nonzero;stroke:none"
             id="path6142" /></g><g
           id="g6144"
           transform="translate(409.2598,107.7432)"><path
             d="m 0,0 h -306.52 c -16.85,0 -30.51,-13.66 -30.51,-30.511 v -69.732 H 30.511 v 69.732 C 30.511,-13.66 16.851,0 0,0 Z"
             style="fill:none;stroke:#000000;stroke-width:15;stroke-linecap:round;stroke-linejoin:round;stroke-miterlimit:10;stroke-dasharray:none;stroke-opacity:1"
             id="path6146" /></g><g
           id="g6148"
           transform="translate(439.7705,81.6875)"><path
             d="m 0,0 v 0 c 26.505,0 47.991,-21.486 47.991,-47.991 v -18.824 c 0,-4.072 -3.301,-7.373 -7.372,-7.373 H 0"
             style="fill:none;stroke:#000000;stroke-width:15;stroke-linecap:round;stroke-linejoin:round;stroke-miterlimit:10;stroke-dasharray:none;stroke-opacity:1"
             id="path6150" /></g><g
           id="g6152"
           transform="translate(72.23,81.6875)"><path
             d="m 0,0 v 0 c -26.505,0 -47.992,-21.486 -47.992,-47.991 v -18.824 c 0,-4.072 3.301,-7.373 7.372,-7.373 H 0"
             style="fill:none;stroke:#000000;stroke-width:15;stroke-linecap:round;stroke-linejoin:round;stroke-miterlimit:10;stroke-dasharray:none;stroke-opacity:1"
             id="path6154" /></g><g
           id="g6156"
           transform="translate(181.9106,50.6582)"><path
             d="m 0,0 h -33.094 c -6.291,0 -11.392,-5.101 -11.392,-11.393 v -31.765"
             style="fill:none;stroke:#000000;stroke-width:15;stroke-linecap:round;stroke-linejoin:round;stroke-miterlimit:10;stroke-dasharray:none;stroke-opacity:1"
             id="path6158" /></g><g
           id="g6160"
           transform="translate(374.5752,7.5)"><path
             d="m 0,0 v 31.766 c 0,6.292 -5.101,11.392 -11.392,11.392 h -146.21"
             style="fill:none;stroke:#000000;stroke-width:15;stroke-linecap:round;stroke-linejoin:round;stroke-miterlimit:10;stroke-dasharray:none;stroke-opacity:1"
             id="path6162" /></g><g
           id="g6164"
           transform="translate(374.8174,416.6787)"><path
             d="m 0,0 c -11.929,9.276 -26.919,14.801 -43.2,14.801 h -151.235 c -38.899,0 -70.433,-31.534 -70.433,-70.434 v -140.125 c 0,-38.621 31.309,-69.929 69.93,-69.929 h 152.242 c 20.974,0 39.778,9.247 52.595,23.872"
             style="fill:none;stroke:#000000;stroke-width:15;stroke-linecap:round;stroke-linejoin:round;stroke-miterlimit:10;stroke-dasharray:none;stroke-opacity:1"
             id="path6166" /></g><g
           id="g6168"
           transform="translate(401.0752,209.3232)"><path
             d="m 0,0 c 0.63,3.773 0.976,7.645 0.976,11.598 v 140.125 c 0,9.807 -2.005,19.146 -5.626,27.63"
             style="fill:none;stroke:#000000;stroke-width:15;stroke-linecap:round;stroke-linejoin:round;stroke-miterlimit:10;stroke-dasharray:none;stroke-opacity:1"
             id="path6170" /></g><g
           id="g6172"
           transform="translate(397.2939,174.8623)"><path
             d="m 0,0 h -35.212 c -9.633,0 -17.441,7.81 -17.441,17.441 0,9.633 7.808,17.442 17.441,17.442 H 0 c 9.633,0 17.441,-7.809 17.441,-17.442 C 17.441,7.81 9.633,0 0,0 Z"
             style="fill:none;stroke:#000000;stroke-width:15;stroke-linecap:round;stroke-linejoin:round;stroke-miterlimit:10;stroke-dasharray:none;stroke-opacity:1"
             id="path6174" /></g><g
           id="g6176"
           transform="translate(350.1826,239.1025)"><path
             d="m 0,0 h -188.365 c -12.578,0 -22.775,10.196 -22.775,22.774 v 77.493 c 0,12.578 10.197,22.774 22.775,22.774 H 0 c 12.578,0 22.774,-10.196 22.774,-22.774 V 22.774 C 22.774,10.196 12.578,0 0,0 Z"
             style="fill:none;stroke:#000000;stroke-width:15;stroke-linecap:round;stroke-linejoin:round;stroke-miterlimit:10;stroke-dasharray:none;stroke-opacity:1"
             id="path6178" /></g><g
           id="g6180"
           transform="translate(220.3232,300.623)"><path
             d="m 0,0 c 0,-12.099 -9.808,-21.906 -21.906,-21.906 -12.098,0 -21.907,9.807 -21.907,21.906 0,12.099 9.809,21.906 21.907,21.906 C -9.808,21.906 0,12.099 0,0 Z"
             style="fill:none;stroke:#000000;stroke-width:15;stroke-linecap:round;stroke-linejoin:round;stroke-miterlimit:10;stroke-dasharray:none;stroke-opacity:1"
             id="path6182" /></g><g
           id="g6184"
           transform="translate(335.4893,300.623)"><path
             d="m 0,0 c 0,-12.099 -9.808,-21.906 -21.906,-21.906 -12.099,0 -21.907,9.807 -21.907,21.906 0,12.099 9.808,21.906 21.907,21.906 C -9.808,21.906 0,12.099 0,0 Z"
             style="fill:none;stroke:#000000;stroke-width:15;stroke-linecap:round;stroke-linejoin:round;stroke-miterlimit:10;stroke-dasharray:none;stroke-opacity:1"
             id="path6186" /></g><g
           id="g6188"
           transform="translate(172.002,430.9658)"><path
             d="m 0,0 c 1.13,-19.982 17.687,-35.84 37.953,-35.84 h 92.09 c 20.266,0 36.822,15.858 37.953,35.84"
             style="fill:none;stroke:#000000;stroke-width:15;stroke-linecap:round;stroke-linejoin:round;stroke-miterlimit:10;stroke-dasharray:none;stroke-opacity:1"
             id="path6190" /></g><g
           id="g6192"
           transform="translate(109.9497,245.9277)"><path
             d="m 0,0 h -36.874 c -8.55,0 -15.481,6.932 -15.481,15.481 v 56.767 c 0,8.55 6.931,15.481 15.481,15.481 H 0"
             style="fill:none;stroke:#000000;stroke-width:15;stroke-linecap:round;stroke-linejoin:round;stroke-miterlimit:10;stroke-dasharray:none;stroke-opacity:1"
             id="path6194" /></g><g
           id="g6196"
           transform="translate(402.0508,245.9277)"><path
             d="m 0,0 h 36.874 c 8.55,0 15.48,6.932 15.48,15.481 v 56.767 c 0,8.55 -6.93,15.481 -15.48,15.481 H 0"
             style="fill:none;stroke:#000000;stroke-width:15;stroke-linecap:round;stroke-linejoin:round;stroke-miterlimit:10;stroke-dasharray:none;stroke-opacity:1"
             id="path6198" /></g><g
           id="g6200"
           transform="translate(312.5732,107.7432)"><path
             d="M 0,0 V 43.248"
             style="fill:none;stroke:#000000;stroke-width:15;stroke-linecap:round;stroke-linejoin:round;stroke-miterlimit:10;stroke-dasharray:none;stroke-opacity:1"
             id="path6202" /></g><g
           id="g6204"
           transform="translate(199.4268,150.9912)"><path
             d="M 0,0 V -43.248"
             style="fill:none;stroke:#000000;stroke-width:15;stroke-linecap:round;stroke-linejoin:round;stroke-miterlimit:10;stroke-dasharray:none;stroke-opacity:1"
             id="path6206" /></g><g
           id="g6208"
           transform="translate(98.0713,484.9971)"><path
             d="m 0,0 c 0,-10.771 -8.732,-19.503 -19.503,-19.503 -10.771,0 -19.502,8.732 -19.502,19.503 0,10.771 8.731,19.503 19.502,19.503 C -8.732,19.503 0,10.771 0,0 Z"
             style="fill:none;stroke:#000000;stroke-width:15;stroke-linecap:round;stroke-linejoin:round;stroke-miterlimit:10;stroke-dasharray:none;stroke-opacity:1"
             id="path6210" /></g></g></g></g></svg>
