<svg id="Layer_1" enable-background="new 0 0 66 66" viewBox="0 0 66 66" xmlns="http://www.w3.org/2000/svg"><g><g><path d="m58 65h-41c-2.8 0-5-2.2-5-5v-54c0-2.8 2.2-5 5-5h31.2c2.8 0 5 2.2 5 5v50.8c0 .6-.4 1-1 1s-1-.4-1-1v-50.8c0-1.7-1.3-3-3-3h-31.2c-1.7 0-3 1.3-3 3v54c0 1.7 1.3 3 3 3h41c.6 0 1 .4 1 1s-.4 1-1 1z" fill="#101f2d"/></g><g><path d="m58.2 64h-.4c-3.1 0-5.6-2.5-5.6-5.6v-38.9h8.5c1.7 0 3 1.3 3 3v35.9c.1 3.1-2.5 5.6-5.5 5.6z" fill="#64c4f6"/><path d="m58.2 65h-.4c-3.6 0-6.6-3-6.6-6.6v-38.9c0-.6.4-1 1-1h8.5c2.2 0 4 1.8 4 4v35.9c.1 1.7-.6 3.3-1.8 4.6s-3 2-4.7 2zm-5-44.5v37.9c0 2.5 2.1 4.6 4.6 4.6h.4c1.2 0 2.4-.5 3.3-1.4.8-.9 1.3-2 1.2-3.2v-35.9c0-1.1-.9-2-2-2z" fill="#101f2d"/></g><g><g><g><path d="m21.9 37.6c-.2 0-.4-.1-.6-.2l-5-3.5c-.5-.3-.6-.9-.2-1.4.3-.5.9-.6 1.4-.2l3.2 2.2-.4-3.8c-.1-.5.3-1 .9-1.1s1 .3 1.1.9l.6 6c0 .4-.2.8-.5 1-.2.1-.3.1-.5.1z" fill="#101f2d"/></g><g><path d="m16.9 33.1 4.4-2.5-13.9-24.2c-.3-.4-.8-.7-1.4-.6-1.2.2-2.1.8-2.9 1.7-.3.4-.4 1-.1 1.5z" fill="#ef6561"/><path d="m16.9 34.1c-.3 0-.7-.2-.9-.5l-13.9-24.1c-.4-.8-.4-1.8.2-2.6 1.1-1.2 2.2-1.9 3.5-2.1.9-.2 1.8.2 2.4 1 0 0 0 .1.1.1l13.9 24.2c.1.2.2.5.1.8s-.2.5-.5.6l-4.4 2.5c-.2.1-.3.1-.5.1zm-10.7-27.3c-.9.1-1.6.6-2.4 1.4 0 0-.1.2 0 .3l13.4 23.3 2.7-1.5-13.3-23.3c-.1-.1-.2-.2-.4-.2z" fill="#101f2d"/></g><g><path d="m4.2 12c-.3 0-.7-.2-.9-.5-.3-.5-.1-1.1.4-1.4l4.4-2.5c.5-.2 1.1-.1 1.4.4s.1 1.1-.4 1.4l-4.4 2.5c-.2.1-.3.1-.5.1z" fill="#101f2d"/></g></g></g><g><g><path d="m36.4 28.2h-7.1c-.6 0-1-.4-1-1v-.6c0-1.9-.9-3.8-2.3-5.3-1.8-1.9-2.7-4.2-2.7-6.8.1-5.1 4.1-9.2 9.2-9.4 2.6-.1 5.1.8 7 2.6s2.9 4.3 2.9 7c0 2.5-1 4.9-2.8 6.7-1.4 1.3-2.2 3.1-2.2 4.9v.9c0 .6-.4 1-1 1zm-6.1-2h5.1c0-2.3 1-4.6 2.8-6.2 1.4-1.4 2.2-3.3 2.2-5.3 0-2.1-.8-4.1-2.3-5.5s-3.5-2.2-5.5-2.1c-4 .2-7.2 3.4-7.2 7.4 0 2 .7 3.9 2.1 5.4 1.6 1.7 2.7 4 2.8 6.3z" fill="#101f2d"/></g><g><path d="m32.8 27.9c-.6 0-1-.4-1-1v-5.6c0-.6.4-1 1-1s1 .4 1 1v5.6c0 .6-.4 1-1 1z" fill="#101f2d"/></g><g><path d="m38.7 28.3h-11.9c-.6 0-1-.4-1-1s.4-1 1-1h11.9c.6 0 1 .4 1 1s-.4 1-1 1z" fill="#101f2d"/></g></g><g><g><path d="m46.4 39h-18.4c-.6 0-1-.4-1-1s.4-1 1-1h18.4c.6 0 1 .4 1 1s-.4 1-1 1z" fill="#101f2d"/></g><g><path d="m46.4 34h-19.6c-.6 0-1-.4-1-1s.4-1 1-1h19.6c.6 0 1 .4 1 1s-.4 1-1 1z" fill="#101f2d"/></g><g><path d="m46.4 43.9h-21.4c-.6 0-1-.4-1-1s.4-1 1-1h21.4c.6 0 1 .4 1 1s-.4 1-1 1z" fill="#101f2d"/></g></g><g><circle cx="32.8" cy="17.9" fill="#ef6561" r="3.1"/><path d="m32.8 22c-2.3 0-4.1-1.8-4.1-4.1s1.8-4.1 4.1-4.1 4.1 1.8 4.1 4.1-1.8 4.1-4.1 4.1zm0-6.2c-1.2 0-2.1.9-2.1 2.1s.9 2.1 2.1 2.1 2.1-.9 2.1-2.1-.9-2.1-2.1-2.1z" fill="#101f2d"/></g><g><g><path d="m15.2 44.8c-.4 4.8-.4 9.6 0 14.4h-10.6c.6-4.8.6-9.6 0-14.4z" fill="#64c4f6"/><path d="m15.2 60.2h-10.6c-.3 0-.6-.1-.7-.3-.2-.2-.3-.5-.2-.8.6-4.7.6-9.5 0-14.2 0-.3.1-.6.2-.8.2-.2.5-.3.7-.3h10.6c.3 0 .5.1.7.3s.3.5.3.8c-.4 4.7-.4 9.5 0 14.2 0 .3-.1.6-.3.8s-.4.3-.7.3zm-9.5-2h8.4c-.3-4.1-.3-8.3 0-12.4h-8.4c.5 4.1.5 8.3 0 12.4z" fill="#101f2d"/></g><g><path d="m17.5 62v-.8c0-1.1-.9-2-2-2h-11.3c-1.1 0-2 .9-2 2v.8c0 1.1.9 2 2 2h11.3c1.1 0 2-.9 2-2z" fill="#ef6561"/><path d="m15.5 65h-11.3c-1.7 0-3-1.3-3-3v-.8c0-1.7 1.3-3 3-3h11.3c1.7 0 3 1.3 3 3v.8c0 1.7-1.3 3-3 3zm-11.3-4.8c-.6 0-1 .4-1 1v.8c0 .6.4 1 1 1h11.3c.6 0 1-.4 1-1v-.8c0-.6-.4-1-1-1z" fill="#101f2d"/></g><g><path d="m17.5 42.8v-.8c0-1.1-.9-2-2-2h-11.3c-1.1 0-2 .9-2 2v.8c0 1.1.9 2 2 2h11.3c1.1 0 2-.9 2-2z" fill="#ef6561"/><path d="m15.5 45.8h-11.3c-1.7 0-3-1.3-3-3v-.8c0-1.7 1.3-3 3-3h11.3c1.7 0 3 1.3 3 3v.8c0 1.7-1.3 3-3 3zm-11.3-4.8c-.6 0-1 .4-1 1v.8c0 .6.4 1 1 1h11.3c.6 0 1-.4 1-1v-.8c0-.6-.4-1-1-1z" fill="#101f2d"/></g><g><path d="m44.3 56.4-29.1-.8c-.6 0-1-.5-1-1 0-.6.5-1 1-1l29.1.8c1.4 0 2.5-1.1 2.5-2.4 0-.7-.3-1.3-.8-1.8-.5-.4-1.1-.7-1.7-.6l-29.1.8c-.5 0-1-.4-1-1s.4-1 1-1l29.1-.8c1.2-.1 2.3.4 3.1 1.2.9.8 1.4 2 1.4 3.2 0 2.4-2 4.4-4.5 4.4z" fill="#101f2d"/></g></g></g></svg>