<svg id="Layer_1" enable-background="new 0 0 512 512" viewBox="0 0 512 512" xmlns="http://www.w3.org/2000/svg"><g clip-rule="evenodd" fill-rule="evenodd"><path d="m55.547 256c57.589-154.29 343.318-154.29 400.907 0-57.589 154.29-343.319 154.29-400.907 0z" fill="#eceff1"/><ellipse cx="256" cy="256" fill="#60b7ff" rx="71.319" ry="71.319" transform="matrix(.23 -.973 .973 .23 -51.969 446.335)"/><path d="m268.506 431.641v49.361c0 6.898-5.598 12.496-12.501 12.496-6.898 0-12.501-5.598-12.501-12.496v-49.361c0-6.912 5.603-12.501 12.501-12.501 6.902 0 12.501 5.588 12.501 12.501zm-143.799-27.231-24.683 42.749c-2.318 4.012-6.518 6.251-10.84 6.251-2.116 0-4.27-.54-6.236-1.68-5.983-3.449-8.02-11.089-4.571-17.067l24.678-42.749c3.449-5.983 11.089-8.034 17.081-4.585 5.969 3.463 8.019 11.102 4.571 17.081zm308.93 30.253c3.449 5.978 1.398 13.618-4.58 17.067-1.962 1.14-4.111 1.68-6.232 1.68-4.317 0-8.531-2.238-10.84-6.251l-24.678-42.749c-3.449-5.978-1.413-13.618 4.571-17.081 5.978-3.449 13.627-1.398 17.076 4.585zm-46.329-327.073 24.678-42.749c3.449-5.983 11.089-8.029 17.072-4.571 5.978 3.449 8.029 11.089 4.58 17.072l-24.683 42.749c-2.318 4.007-6.518 6.25-10.84 6.25-2.121 0-4.27-.539-6.236-1.671-5.984-3.462-8.021-11.101-4.571-17.08zm-308.931-30.248c-3.449-5.983-1.412-13.622 4.571-17.072 5.978-3.458 13.627-1.412 17.076 4.571l24.683 42.749c3.449 5.978 1.398 13.618-4.571 17.081-1.971 1.131-4.12 1.671-6.241 1.671-4.317 0-8.517-2.243-10.84-6.25zm165.127 3.017v-49.356c0-6.903 5.603-12.501 12.501-12.501 6.903 0 12.501 5.598 12.501 12.501v49.356c0 6.912-5.598 12.501-12.501 12.501-6.898 0-12.501-5.588-12.501-12.501zm12.501 234.46c-32.43 0-58.821-26.387-58.821-58.817s26.391-58.821 58.821-58.821 58.821 26.391 58.821 58.821c0 32.431-26.391 58.817-58.821 58.817zm0-142.64c-46.217 0-83.819 37.602-83.819 83.823 0 46.217 37.602 83.819 83.819 83.819 46.222 0 83.818-37.602 83.818-83.819 0-46.221-37.596-83.823-83.818-83.823zm0 187.041c88.229 0 161.011-40.361 187.022-103.218-26.011-62.862-98.793-103.223-187.022-103.223-88.23 0-161.012 40.352-187.018 103.223 26.006 62.857 98.788 103.218 187.018 103.218zm212.16-107.591c-14.608-39.16-43.871-71.458-84.621-93.42-36.931-19.91-81.027-30.431-127.539-30.431-46.508 0-90.609 10.521-127.549 30.431-40.741 21.961-69.999 54.26-84.621 93.42-1.051 2.82-1.051 5.922 0 8.742 14.622 39.159 43.88 71.459 84.621 93.42 36.94 19.911 81.04 30.431 127.549 30.431 46.513 0 90.609-10.521 127.539-30.431 40.75-21.961 70.013-54.26 84.621-93.42 1.051-2.82 1.051-5.922 0-8.742z"/></g></svg>