<?xml version="1.0" encoding="UTF-8"?>
<svg width="24px" height="24px" viewBox="0 0 24 24" version="1.1" xmlns="http://www.w3.org/2000/svg">
    <title>Logout Icon</title>
    <g stroke="none" stroke-width="1" fill="none" fill-rule="evenodd">
        <g transform="translate(2.000000, 2.000000)" fill="#FFFFFF" fill-rule="nonzero">
            <!-- Door frame -->
            <path d="M18,0 C19.1046,0 20,0.8954 20,2 L20,18 C20,19.1046 19.1046,20 18,20 L10,20 C8.8954,20 8,19.1046 8,18 L8,15 L10,15 L10,18 L18,18 L18,2 L10,2 L10,5 L8,5 L8,2 C8,0.8954 8.8954,0 10,0 L18,0 Z" />
            <!-- Arrow -->
            <path d="M14,10 L3,10 C2.4477,10 2,9.5523 2,9 C2,8.4477 2.4477,8 3,8 L14,8 L11.7071,5.7071 C11.3166,5.3166 11.3166,4.6834 11.7071,4.2929 C12.0976,3.9024 12.7308,3.9024 13.1213,4.2929 L17.4142,8.5858 C17.7893,8.9609 17.7893,9.5304 17.4142,9.9055 L17.4142,9.9056 L13.1213,14.1985 C12.7308,14.589 12.0976,14.589 11.7071,14.1985 C11.3166,13.808 11.3166,13.1748 11.7071,12.7843 L14,10.5 L14,10 Z" />
        </g>
    </g>
</svg>